<svg width="151" height="84" viewBox="0 0 151 84" fill="none" xmlns="http://www.w3.org/2000/svg">
    <path d="M10.1591 55.8636V71H2.89773V36.0909H9.95455V49.4375H10.2614C10.8523 47.892 11.8068 46.6818 13.125 45.8068C14.4432 44.9205 16.0966 44.4773 18.0852 44.4773C19.9034 44.4773 21.4886 44.875 22.8409 45.6705C24.2045 46.4545 25.2614 47.5852 26.0114 49.0625C26.7727 50.5284 27.1477 52.2841 27.1364 54.3295V71H19.875V55.625C19.8864 54.0114 19.4773 52.7557 18.6477 51.858C17.8295 50.9602 16.6818 50.5114 15.2045 50.5114C14.2159 50.5114 13.3409 50.7216 12.5795 51.142C11.8295 51.5625 11.2386 52.1761 10.8068 52.983C10.3864 53.7784 10.1705 54.7386 10.1591 55.8636ZM40.3168 71.4943C38.6463 71.4943 37.1577 71.2045 35.8509 70.625C34.544 70.0341 33.5099 69.1648 32.7486 68.017C31.9986 66.858 31.6236 65.4148 31.6236 63.6875C31.6236 62.233 31.8906 61.0114 32.4247 60.0227C32.9588 59.0341 33.6861 58.2386 34.6065 57.6364C35.527 57.0341 36.5724 56.5795 37.7429 56.2727C38.9247 55.9659 40.1634 55.75 41.4588 55.625C42.9815 55.4659 44.2088 55.3182 45.1406 55.1818C46.0724 55.0341 46.7486 54.8182 47.169 54.5341C47.5895 54.25 47.7997 53.8295 47.7997 53.2727V53.1705C47.7997 52.0909 47.4588 51.2557 46.777 50.6648C46.1065 50.0739 45.152 49.7784 43.9134 49.7784C42.6065 49.7784 41.5668 50.0682 40.794 50.6477C40.0213 51.2159 39.5099 51.9318 39.2599 52.7955L32.544 52.25C32.8849 50.6591 33.5554 49.2841 34.5554 48.125C35.5554 46.9545 36.8452 46.0568 38.4247 45.4318C40.0156 44.7955 41.8565 44.4773 43.9474 44.4773C45.402 44.4773 46.794 44.6477 48.1236 44.9886C49.4645 45.3295 50.652 45.858 51.6861 46.5739C52.7315 47.2898 53.5554 48.2102 54.1577 49.3352C54.7599 50.4489 55.0611 51.7841 55.0611 53.3409V71H48.1747V67.3693H47.9702C47.5497 68.1875 46.9872 68.9091 46.2827 69.5341C45.5781 70.1477 44.7315 70.6307 43.7429 70.983C42.7543 71.3239 41.6122 71.4943 40.3168 71.4943ZM42.3963 66.483C43.4645 66.483 44.4077 66.2727 45.2259 65.8523C46.044 65.4205 46.6861 64.8409 47.152 64.1136C47.6179 63.3864 47.8509 62.5625 47.8509 61.642V58.8636C47.6236 59.0114 47.3111 59.1477 46.9134 59.2727C46.527 59.3864 46.0895 59.4943 45.6009 59.5966C45.1122 59.6875 44.6236 59.7727 44.1349 59.8523C43.6463 59.9205 43.2031 59.983 42.8054 60.0398C41.9531 60.1648 41.2088 60.3636 40.5724 60.6364C39.9361 60.9091 39.4418 61.2784 39.0895 61.7443C38.7372 62.1989 38.5611 62.767 38.5611 63.4489C38.5611 64.4375 38.919 65.1932 39.6349 65.7159C40.3622 66.2273 41.2827 66.483 42.3963 66.483ZM60.831 71V36.0909H68.0923V49.2159H68.3139C68.6321 48.5114 69.0923 47.7955 69.6946 47.0682C70.3082 46.3295 71.1037 45.7159 72.081 45.2273C73.0696 44.7273 74.2969 44.4773 75.7628 44.4773C77.6719 44.4773 79.4332 44.9773 81.0469 45.9773C82.6605 46.9659 83.9503 48.4602 84.9162 50.4602C85.8821 52.4489 86.3651 54.9432 86.3651 57.9432C86.3651 60.8636 85.8935 63.3295 84.9503 65.3409C84.0185 67.3409 82.7457 68.858 81.1321 69.892C79.5298 70.9148 77.7344 71.4261 75.7457 71.4261C74.3366 71.4261 73.1378 71.1932 72.1491 70.7273C71.1719 70.2614 70.3707 69.6761 69.7457 68.9716C69.1207 68.2557 68.6435 67.5341 68.3139 66.8068H67.9901V71H60.831ZM67.9389 57.9091C67.9389 59.4659 68.1548 60.8239 68.5866 61.983C69.0185 63.142 69.6435 64.0455 70.4616 64.6932C71.2798 65.3295 72.2741 65.6477 73.4446 65.6477C74.6264 65.6477 75.6264 65.3239 76.4446 64.6761C77.2628 64.017 77.8821 63.108 78.3026 61.9489C78.7344 60.7784 78.9503 59.4318 78.9503 57.9091C78.9503 56.3977 78.7401 55.0682 78.3196 53.9205C77.8991 52.7727 77.2798 51.875 76.4616 51.2273C75.6435 50.5795 74.6378 50.2557 73.4446 50.2557C72.2628 50.2557 71.2628 50.5682 70.4446 51.1932C69.6378 51.8182 69.0185 52.7045 68.5866 53.8523C68.1548 55 67.9389 56.3523 67.9389 57.9091ZM91.2102 71V44.8182H98.4716V71H91.2102ZM94.858 41.4432C93.7784 41.4432 92.8523 41.0852 92.0795 40.3693C91.3182 39.642 90.9375 38.7727 90.9375 37.7614C90.9375 36.7614 91.3182 35.9034 92.0795 35.1875C92.8523 34.4602 93.7784 34.0966 94.858 34.0966C95.9375 34.0966 96.858 34.4602 97.6193 35.1875C98.392 35.9034 98.7784 36.7614 98.7784 37.7614C98.7784 38.7727 98.392 39.642 97.6193 40.3693C96.858 41.0852 95.9375 41.4432 94.858 41.4432ZM118.214 44.8182V50.2727H102.447V44.8182H118.214ZM106.027 38.5455H113.288V62.9545C113.288 63.625 113.391 64.1477 113.595 64.5227C113.8 64.8864 114.084 65.142 114.447 65.2898C114.822 65.4375 115.254 65.5114 115.743 65.5114C116.084 65.5114 116.425 65.483 116.766 65.4261C117.107 65.358 117.368 65.3068 117.55 65.2727L118.692 70.6761C118.328 70.7898 117.817 70.9205 117.158 71.0682C116.499 71.2273 115.697 71.3239 114.754 71.358C113.004 71.4261 111.47 71.1932 110.152 70.6591C108.845 70.125 107.828 69.2955 107.101 68.1705C106.374 67.0455 106.016 65.625 106.027 63.9091V38.5455ZM144.401 52.2841L137.753 52.6932C137.639 52.125 137.395 51.6136 137.02 51.1591C136.645 50.6932 136.151 50.3239 135.537 50.0511C134.935 49.767 134.213 49.625 133.372 49.625C132.247 49.625 131.298 49.8636 130.526 50.3409C129.753 50.8068 129.366 51.4318 129.366 52.2159C129.366 52.8409 129.616 53.3693 130.116 53.8011C130.616 54.233 131.474 54.5795 132.69 54.8409L137.429 55.7955C139.974 56.3182 141.872 57.1591 143.122 58.3182C144.372 59.4773 144.997 61 144.997 62.8864C144.997 64.6023 144.491 66.108 143.48 67.4034C142.48 68.6989 141.105 69.7102 139.355 70.4375C137.616 71.1534 135.611 71.5114 133.338 71.5114C129.872 71.5114 127.111 70.7898 125.054 69.3466C123.009 67.892 121.81 65.9148 121.457 63.4148L128.599 63.0398C128.815 64.0966 129.338 64.9034 130.168 65.4602C130.997 66.0057 132.06 66.2784 133.355 66.2784C134.628 66.2784 135.651 66.0341 136.423 65.5455C137.207 65.0455 137.605 64.4034 137.616 63.6193C137.605 62.9602 137.327 62.4205 136.781 62C136.236 61.5682 135.395 61.2386 134.259 61.0114L129.724 60.108C127.168 59.5966 125.264 58.7102 124.014 57.4489C122.776 56.1875 122.156 54.5795 122.156 52.625C122.156 50.9432 122.611 49.4943 123.52 48.2784C124.44 47.0625 125.73 46.125 127.389 45.4659C129.06 44.8068 131.014 44.4773 133.253 44.4773C136.56 44.4773 139.162 45.1761 141.06 46.5739C142.969 47.9716 144.082 49.875 144.401 52.2841Z" fill="white"/>
    <rect x="0.5" y="0.5" width="15" height="15" rx="3.5" fill="#18181B" stroke="#27272A"/>
    <rect x="20.5" y="0.5" width="15" height="15" rx="3.5" fill="#4C1D95" stroke="#6D28D9"/>
    <rect x="40.5" y="0.5" width="15" height="15" rx="3.5" fill="#5B21B6" stroke="#7C3AED"/>
    <rect x="60.5" y="0.5" width="15" height="15" rx="3.5" fill="#6D28D9" stroke="#8B5CF6"/>
    <rect x="80.5" y="0.5" width="15" height="15" rx="3.5" fill="#7C3AED" stroke="#A78BFA"/>
    <rect x="100.5" y="0.5" width="15" height="15" rx="3.5" fill="#8B5CF6" stroke="#C4B5FD"/>
    </svg>